PathFileType	4	(X/Y/Z)	C:/Users/opensim2020/Desktop/walking_exp_matlab/subject01_walking10_straight_01.trc																																																																																																																															
DataRate	CameraRate	NumFrames	NumMarkers	Units	OrigDataRate	OrigDataStartFrame	OrigNumFrames																																																																																																																											
100	100	4	43	mm	100	1009	349																																																																																																																											
Frame#	Time	LFHD			RFHD			LBHD			RBHD			C7			T10			CLAV			STRN			RBAK			LSHO			LUPA			LELB			LFRM			LWRA			LWRB			LFIN			RSHO			RUPA			RELB			RFRM			RWRA			RWRB			RFIN			LASI			RASI			LPSI			RPSI			LTHI			LKNE			LTIB			LANK			LHEE			LTOE			RTHI			RKNE			RTIB			RANK			RHEE			RTOE			*39			*40			*41			*42		
		X1	Y1	Z1	X2	Y2	Z2	X3	Y3	Z3	X4	Y4	Z4	X5	Y5	Z5	X6	Y6	Z6	X7	Y7	Z7	X8	Y8	Z8	X9	Y9	Z9	X10	Y10	Z10	X11	Y11	Z11	X12	Y12	Z12	X13	Y13	Z13	X14	Y14	Z14	X15	Y15	Z15	X16	Y16	Z16	X17	Y17	Z17	X18	Y18	Z18	X19	Y19	Z19	X20	Y20	Z20	X21	Y21	Z21	X22	Y22	Z22	X23	Y23	Z23	X24	Y24	Z24	X25	Y25	Z25	X26	Y26	Z26	X27	Y27	Z27	X28	Y28	Z28	X29	Y29	Z29	X30	Y30	Z30	X31	Y31	Z31	X32	Y32	Z32	X33	Y33	Z33	X34	Y34	Z34	X35	Y35	Z35	X36	Y36	Z36	X37	Y37	Z37	X38	Y38	Z38	X39	Y39	Z39	X40	Y40	Z40	X41	Y41	Z41	X42	Y42	Z42	X43	Y43	Z43
																																																																																																																																		
88	0.87	-597.08923	1667.4259	1384.98242	-574.4007	1676.17957	1496.2251	-696.19769	1593.42554	1402.7063	-674.56183	1600.88733	1521.12561	-699.70453	1421.33337	1431.54565	-733.37677	1128.1167	1437.61475	-556.59906	1354.13367	1434.55151	-514.47052	1197.33374	1427.40649	-755.13245	1225.76196	1502.2959	-610.15704	1385.75647	1273.9364	-610.1474	1204.72034	1183.58228	-588.50305	1053.50977	1178.04626	-512.1438	963.90887	1166.72009	-404.14224	884.49951	1203.08264	-448.97467	859.5528	1173.57703	-379.05859	812.43787	1173.1814	-622.66949	1378.8501	1585.41101	-690.24847	1176.40674	1675.65991	-692.61859	1052.29578	1673.53357	-672.26758	933.72192	1703.37756	-594.85657	813.79718	1690.12341	-642.32336	816.60498	1724.86353	-610.05902	736.52484	1724.28369	-565.91321	918.25879	1323.8623	-547.02985	929.75269	1540.15588	-747.90601	932.58423	1395.53247	-732.72021	935.23486	1540.57483	-649.80511	588.27155	1284.64258	-685.36475	456.04929	1302.83533	-785.49036	294.39722	1296.11304	-876.70886	94.99028	1352.72437	-928.95105	79.06397	1404.4104	-743.28326	28.78223	1350.96021	-540.0979	600.70648	1603.36682	-491.32471	453.2941	1574.07129	-503.13419	278.33746	1580.67554	-474.21057	73.14705	1535.09985	-514.17371	29.32108	1483.18616	-330.05902	51.82009	1536.90417	-597.12878	1705.32605	1476.12891	1973.06067	1023.9339	-3101.99316	2012.49695	1021.88629	-3140.77954	NaN	NaN	NaN
89	0.88	-590.86194	1667.85461	1386.55188	-568.16046	1676.63708	1497.79346	-689.96533	1593.74414	1404.39417	-668.29413	1601.31641	1522.76624	-693.14709	1421.3905	1433.31335	-725.93762	1128.04211	1439.28052	-550.03687	1354.49939	1436.375	-507.37381	1197.88501	1429.25012	-748.23035	1225.50891	1503.93286	-603.82794	1385.79297	1275.64807	-603.8111	1204.56628	1185.46118	-582.48669	1053.1991	1179.99475	-506.33853	963.48163	1168.34424	-398.48358	883.87982	1204.47473	-443.0589	859.0943	1174.73486	-373.36392	812.04327	1174.45996	-616.24768	1378.8457	1587.31262	-683.60291	1176.15027	1677.29431	-685.70837	1052.07434	1675.2406	-665.14844	933.42731	1704.86658	-587.50024	813.64783	1691.46204	-635.11127	816.25366	1726.25146	-602.74036	736.41827	1725.60034	-557.55603	918.32123	1325.38916	-539.27246	929.64246	1541.43958	-740.01129	932.41162	1396.81909	-724.94012	935.13141	1541.98157	-642.70911	588.45093	1285.69202	-679.10889	456.43488	1303.70264	-781.58459	296.3075	1296.6748	-875.00208	97.85456	1352.27173	-927.64453	82.75079	1403.81055	-742.96533	28.77199	1350.84973	-530.54987	602.90076	1606.16467	-484.4993	453.40573	1574.68347	-498.39536	278.27264	1581.11096	-472.13144	72.9668	1535.41443	-512.94629	30.72748	1483.84656	-328.59027	48.85244	1537.79883	-590.92804	1705.76038	1477.73328	1973.18958	1023.49335	-3101.823	2012.52563	1022.01086	-3140.73022	NaN	NaN	NaN
90	0.89	-584.34644	1668.47461	1388.16382	-561.8515	1677.20325	1499.37378	-683.86041	1594.34033	1406.08167	-661.99677	1601.90381	1524.48181	-686.65082	1421.59814	1435.11389	-718.38922	1128.03271	1440.92078	-543.48956	1355.08203	1438.21973	-500.2756	1198.65466	1431.09802	-741.30316	1225.45068	1505.64307	-597.31763	1386.1925	1277.41907	-597.45953	1204.57849	1187.58191	-576.60889	1053.17773	1181.94385	-500.62384	963.25208	1170.11829	-392.7536	883.53552	1205.72473	-437.65146	858.68878	1176.30701	-368.17426	811.61285	1175.65503	-609.7287	1379.07544	1589.19263	-676.85876	1176.09741	1679.00952	-678.60327	1051.92834	1676.84851	-657.89197	933.34613	1706.44983	-580.13281	813.67712	1692.78174	-627.59479	816.13806	1727.61047	-595.14343	736.4635	1726.9469	-549.5744	918.44794	1326.76599	-531.42694	929.80994	1542.84399	-732.13971	932.46545	1397.93884	-717.28217	935.53748	1543.17981	-635.23871	588.77618	1286.88354	-672.27411	456.88385	1304.52185	-776.83197	298.12332	1296.95435	-872.94617	100.57112	1351.63354	-926.03699	86.80275	1403.19873	-742.7533	28.82556	1350.8363	-523.34778	603.39771	1607.05151	-478.18796	453.49423	1575.67151	-493.38217	278.37506	1582.21741	-470.16501	72.81525	1536.11694	-512.05493	31.32612	1484.14172	-327.27823	45.58501	1538.30908	-584.76892	1706.25647	1479.21289	1973.23584	1023.53094	-3101.93091	2012.64868	1022.17145	-3140.67554	NaN	NaN	NaN
91	0.9	-578.15735	1668.99097	1389.72571	-555.4458	1677.84363	1500.99463	-677.47205	1594.94141	1407.93762	-655.62164	1602.69556	1526.29102	-680.23907	1421.96252	1436.91541	-710.94037	1128.17395	1442.62891	-536.9483	1355.78333	1440.06201	-493.14059	1199.58862	1432.91528	-734.42273	1225.51477	1507.38196	-590.83435	1386.6687	1279.15857	-591.17169	1204.85754	1189.69263	-570.75006	1053.32544	1184.05579	-495.24054	963.15228	1171.92725	-387.76602	882.85895	1207.10339	-432.86285	858.34052	1178.17725	-363.35233	811.06976	1176.8551	-603.29425	1379.3717	1591.02087	-670.04156	1176.20642	1680.79004	-671.43427	1051.97571	1678.45764	-650.52405	933.41077	1708.00586	-572.68396	813.95782	1694.15222	-620.17664	816.23151	1729.01599	-587.4577	736.68408	1728.34387	-541.21082	918.8725	1328.36609	-523.64154	930.1908	1544.36609	-724.16052	932.79523	1398.94397	-709.7749	936.23773	1544.12866	-627.25562	589.1449	1288.10681	-664.74402	457.38437	1305.34705	-771.57764	300.10275	1297.19873	-870.58936	103.94134	1351.04614	-924.03906	91.04135	1402.37854	-742.43848	28.89956	1350.83105	-515.60999	603.82306	1608.00903	-472.25781	453.68182	1577.17114	-488.57852	278.41226	1583.85278	-468.55066	72.49395	1536.57703	-511.12503	31.93652	1484.9093	-325.85019	43.01332	1538.30359	-578.20862	1707.0271	1480.88477	1973.21545	1023.57489	-3101.80859	2012.50232	1021.979	-3140.73462	NaN	NaN	NaN
